<svg width="275" height="200" viewBox="0 0 275 200" fill="none" xmlns="http://www.w3.org/2000/svg">
<path d="M259.947 26.3585H29.7264V148.782H259.947V26.3585Z" fill="#F2F2F2"/>
<path opacity="0.3" d="M126.368 47.3455H51.9894V137.539H126.368V47.3455Z" fill="#6C63FF"/>
<path d="M214.409 53.8414H154.956V57.0894H214.409V53.8414Z" fill="#3F3D56"/>
<path d="M241.479 59.8376H154.956V63.0856H241.479V59.8376Z" fill="#3F3D56"/>
<path d="M214.409 74.3286H154.956V77.5766H214.409V74.3286Z" fill="#3F3D56"/>
<path d="M214.409 98.3136H154.956V101.562H214.409V98.3136Z" fill="#3F3D56"/>
<path d="M241.479 80.3247H154.956V83.5727H241.479V80.3247Z" fill="#3F3D56"/>
<path d="M241.479 86.321H154.956V89.5689H241.479V86.321Z" fill="#3F3D56"/>
<path d="M241.479 92.3174H154.956V95.5653H241.479V92.3174Z" fill="#3F3D56"/>
<path d="M186.074 112.805H154.956V121.299H186.074V112.805Z" fill="#6C63FF"/>
<path d="M131.175 42.4734H56.7964V132.667H131.175V42.4734Z" fill="#3F3D56"/>
<path d="M120.55 92.3442C120.55 109.861 110.005 115.977 96.9979 115.977C83.9905 115.977 73.4459 109.861 73.4459 92.3442C73.4459 74.8274 96.9979 52.5433 96.9979 52.5433C96.9979 52.5433 120.55 74.8274 120.55 92.3442Z" fill="#6C63FF"/>
<path d="M96.14 113.298L96.3813 98.6375L106.42 80.5011L96.419 96.338L96.5275 89.7461L103.446 76.6245L96.5561 88.0017V88.0019L96.7512 76.1463L104.16 65.6999L96.7818 74.282L96.9037 52.5433L96.1379 81.3216L96.2009 80.1344L88.6686 68.7485L96.08 82.4132L95.3782 95.6539L95.3575 95.3024L86.6741 83.3204L95.3311 96.5438L95.2434 98.1998L95.2277 98.2248L95.2348 98.3607L93.4542 131.953H95.8331L96.1187 114.602L104.754 101.411L96.14 113.298Z" fill="#3F3D56"/>
<path d="M33.2683 200C51.5719 200 66.4099 198.098 66.4099 195.753C66.4099 193.407 51.5719 191.505 33.2683 191.505C14.9646 191.505 0.126587 193.407 0.126587 195.753C0.126587 198.098 14.9646 200 33.2683 200Z" fill="#3F3D56"/>
<path d="M17.6141 78.1701L16.5132 80.7522L17.7517 97.4679C17.7517 97.4679 17.0636 98.4192 17.7517 99.0987C18.4397 99.7782 18.3021 100.05 18.3021 100.05C18.3021 100.05 17.2012 100.05 17.7517 100.865C18.3021 101.681 18.3021 102.089 18.3021 102.089L18.0269 102.904C18.0269 102.904 18.5774 103.583 18.5774 104.127C18.5774 104.671 22.1553 121.386 22.1553 121.386L25.5955 114.727L23.669 88.2267L17.6141 78.1701Z" fill="#6C63FF"/>
<path d="M53.8129 119.983C53.8129 119.983 59.8675 124.387 60.0807 127.909C60.294 131.431 52.276 122.665 52.2215 121.677C52.167 120.689 53.8129 119.983 53.8129 119.983Z" fill="#FFB9B9"/>
<path d="M15.8251 186.618L14.3114 191.511C14.3114 191.511 12.1096 196.267 15.1371 196.947C18.1645 197.626 21.0544 195.044 21.0544 195.044V191.783L22.1552 186.618H15.8251Z" fill="#2F2E41"/>
<path d="M40.5951 186.618C40.5951 186.618 39.9071 195.86 41.4208 196.403C42.9345 196.947 48.3013 197.083 48.439 196.403C48.5766 195.724 50.2279 195.044 48.9894 194.093C47.7509 193.142 46.9252 187.57 46.9252 187.57L40.5951 186.618Z" fill="#2F2E41"/>
<path d="M26.6963 99.0987V103.176C26.6963 103.176 22.1551 112.553 20.5038 127.366C18.8524 142.179 13.2104 187.298 14.5865 188.113C15.9626 188.929 30.8246 189.472 31.2375 188.385C31.6503 187.298 32.0631 155.497 32.0631 155.497L37.1547 133.074C37.1547 133.074 38.118 141.092 38.9437 142.451C39.7694 143.81 37.5676 187.977 38.9437 188.657C40.3198 189.336 58.8973 190.56 58.6221 188.385C58.3469 186.211 52.1544 127.23 52.1544 127.23C52.1544 127.23 48.9893 99.3705 48.0261 99.0987C47.0628 98.8269 38.2557 98.5551 36.8795 98.8269C35.5034 99.0987 26.6963 99.0987 26.6963 99.0987Z" fill="#2F2E41"/>
<path d="M37.1549 65.3956C41.4869 65.3956 44.9987 61.9274 44.9987 57.6493C44.9987 53.3711 41.4869 49.903 37.1549 49.903C32.8228 49.903 29.311 53.3711 29.311 57.6493C29.311 61.9274 32.8228 65.3956 37.1549 65.3956Z" fill="#FFB9B9"/>
<path d="M38.806 64.1724C38.806 64.1724 34.8153 70.2879 35.7786 71.9187C36.7418 73.5495 25.5953 70.2879 25.5953 70.2879C25.5953 70.2879 32.3383 62.1339 32.2007 61.1826C32.0631 60.2313 38.806 64.1724 38.806 64.1724Z" fill="#FFB9B9"/>
<path d="M47.0629 73.2777C47.0629 73.2777 39.7695 70.9674 38.8062 70.0161C38.1883 69.3927 37.6351 68.7098 37.1549 67.9776C37.1549 67.9776 28.3478 66.7545 28.0725 66.7545C27.7973 66.7545 25.7331 69.2007 25.1827 69.7443C24.6323 70.2879 17.6141 73.9572 17.6141 74.9085C17.6141 75.8598 16.5132 80.7522 16.5132 80.7522C16.5132 80.7522 18.9902 85.7805 20.5039 86.8677C22.0176 87.9549 22.4305 87.6831 22.5681 89.4498C22.7057 91.2165 24.6323 94.0704 24.6323 94.0704C24.6323 94.0704 25.8708 97.1962 25.5955 98.1475C25.3203 99.0988 24.0818 99.9142 26.9717 99.6424C29.8615 99.3706 44.1731 100.186 44.1731 98.6911C44.1731 97.1962 41.4208 82.9266 41.4208 82.9266L47.0629 73.2777Z" fill="#6C63FF"/>
<path d="M44.4483 73.5495L47.0629 73.2777C47.0629 73.2777 48.0262 73.8213 48.1638 79.1214C48.3014 84.4216 48.3014 97.1962 49.2647 98.2834C50.228 99.3706 54.2187 116.222 54.2187 116.222C54.2187 116.222 55.3196 116.494 55.3196 117.445C55.3196 118.397 56.5581 119.212 56.0077 120.299C55.4572 121.386 56.5581 121.115 55.8701 121.794C55.182 122.474 51.8794 123.833 51.7417 123.017C51.6041 122.202 52.1546 122.066 51.6041 121.794C51.0537 121.522 51.0537 121.386 50.9161 120.435C50.7785 119.484 49.54 118.533 49.6776 118.125C49.8152 117.717 43.6227 105.894 43.6227 105.486C43.6227 105.078 43.2098 103.583 42.6594 103.312C42.1089 103.04 41.2833 102.768 41.6961 102.089C42.1089 101.409 40.5952 81.0241 40.5952 81.0241L44.4483 73.5495Z" fill="#6C63FF"/>
<path d="M43.7878 52.7366C41.3825 50.1581 37.6051 48.7895 34.1411 49.5565C30.677 50.3234 27.7601 53.3607 27.4892 56.8564C27.4338 57.5714 27.48 58.3018 27.2926 58.9947C26.9775 60.16 26.0398 61.0837 25.7092 62.2449C25.4878 63.0226 25.5535 63.86 25.3188 64.634C24.8852 66.064 23.5431 66.9965 22.5202 68.0956C22.1059 68.4984 21.7983 68.9956 21.6243 69.5434C21.5344 70.0292 21.5116 70.5248 21.5565 71.0166C21.5996 73.6678 20.6016 76.2324 18.7717 78.1727C19.8477 77.3832 21.0101 76.7158 22.2372 76.183C21.629 78.0957 22.185 80.3588 23.7153 81.676C25.2455 82.9933 27.6966 83.1979 29.3512 82.0365C30.3341 81.3465 30.9725 80.2875 31.5823 79.26L33.8911 75.3697C34.3087 74.666 34.7446 73.9419 35.4119 73.4612C35.9422 73.0793 36.5865 72.876 37.1202 72.4989C38.4667 71.5474 38.8282 69.6853 38.5775 68.0691C38.3268 66.4529 37.5908 64.9523 37.1687 63.3713C36.8349 62.1209 36.7301 60.6878 37.4812 59.6285C38.4781 58.2223 40.5269 58.0429 41.8815 56.9672C42.3915 56.5623 42.6194 56.0696 42.9846 55.5626C43.3219 55.0947 43.4078 55.2624 43.9303 55.241C45.365 55.1823 44.3194 53.3065 43.7878 52.7366Z" fill="#2F2E41"/>
<path d="M36.9366 61.8364C37.2859 61.8364 37.569 61.1652 37.569 60.3373C37.569 59.5094 37.2859 58.8383 36.9366 58.8383C36.5872 58.8383 36.3041 59.5094 36.3041 60.3373C36.3041 61.1652 36.5872 61.8364 36.9366 61.8364Z" fill="#FFB9B9"/>
<path d="M170.515 181.387C174.986 181.387 178.611 177.807 178.611 173.392C178.611 168.976 174.986 165.397 170.515 165.397C166.044 165.397 162.419 168.976 162.419 173.392C162.419 177.807 166.044 181.387 170.515 181.387Z" fill="#F2F2F2"/>
<path d="M8.09568 23.985C12.5668 23.985 16.1914 20.4055 16.1914 15.99C16.1914 11.5745 12.5668 7.995 8.09568 7.995C3.62456 7.995 0 11.5745 0 15.99C0 20.4055 3.62456 23.985 8.09568 23.985Z" fill="#F2F2F2"/>
<path d="M266.905 15.99C271.376 15.99 275 12.4105 275 7.995C275 3.57948 271.376 0 266.905 0C262.433 0 258.809 3.57948 258.809 7.995C258.809 12.4105 262.433 15.99 266.905 15.99Z" fill="#F2F2F2"/>
</svg>
