<svg width="577" height="461" viewBox="0 0 577 461" fill="none" xmlns="http://www.w3.org/2000/svg">
<g clip-path="url(#clip0)">
<path opacity="0.1" d="M165.692 79.0634H122.427C119.931 79.0634 117.908 81.0865 117.908 83.5821V90.3573C117.908 92.8529 119.931 94.876 122.427 94.876H165.692C168.188 94.876 170.211 92.8529 170.211 90.3573V83.5821C170.211 81.0865 168.188 79.0634 165.692 79.0634Z" fill="#6C5CE7"/>
<path opacity="0.1" d="M220.429 94.876H177.163C174.667 94.876 172.644 96.8991 172.644 99.3947V106.17C172.644 108.666 174.667 110.689 177.163 110.689H220.429C222.924 110.689 224.947 108.666 224.947 106.17V99.3947C224.947 96.8991 222.924 94.876 220.429 94.876Z" fill="#6C5CE7"/>
<path opacity="0.1" d="M275.165 110.689H231.899C229.403 110.689 227.38 112.712 227.38 115.207V121.983C227.38 124.478 229.403 126.501 231.899 126.501H275.165C277.66 126.501 279.683 124.478 279.683 121.983V115.207C279.683 112.712 277.66 110.689 275.165 110.689Z" fill="#6C5CE7"/>
<path opacity="0.1" d="M165.692 55.3443H122.427C119.931 55.3443 117.908 57.3674 117.908 59.8631V66.6382C117.908 69.1338 119.931 71.157 122.427 71.157H165.692C168.188 71.157 170.211 69.1338 170.211 66.6382V59.8631C170.211 57.3674 168.188 55.3443 165.692 55.3443Z" fill="#6C5CE7"/>
<path opacity="0.1" d="M220.429 71.157H177.163C174.667 71.157 172.644 73.1801 172.644 75.6758V82.4509C172.644 84.9465 174.667 86.9696 177.163 86.9696H220.429C222.924 86.9696 224.947 84.9465 224.947 82.4509V75.6758C224.947 73.1801 222.924 71.157 220.429 71.157Z" fill="#6C5CE7"/>
<path opacity="0.1" d="M275.165 86.9697H231.899C229.403 86.9697 227.38 88.9928 227.38 91.4884V98.2636C227.38 100.759 229.403 102.782 231.899 102.782H275.165C277.66 102.782 279.683 100.759 279.683 98.2636V91.4884C279.683 88.9928 277.66 86.9697 275.165 86.9697Z" fill="#6C5CE7"/>
<path opacity="0.1" d="M335.983 79.0634H292.717C290.221 79.0634 288.198 81.0865 288.198 83.5821V90.3573C288.198 92.8529 290.221 94.876 292.717 94.876H335.983C338.478 94.876 340.501 92.8529 340.501 90.3573V83.5821C340.501 81.0865 338.478 79.0634 335.983 79.0634Z" fill="#6C5CE7"/>
<path opacity="0.1" d="M390.719 94.876H347.453C344.957 94.876 342.934 96.8991 342.934 99.3947V106.17C342.934 108.666 344.957 110.689 347.453 110.689H390.719C393.214 110.689 395.238 108.666 395.238 106.17V99.3947C395.238 96.8991 393.214 94.876 390.719 94.876Z" fill="#6C5CE7"/>
<path opacity="0.1" d="M445.455 110.689H402.189C399.693 110.689 397.67 112.712 397.67 115.207V121.983C397.67 124.478 399.693 126.501 402.189 126.501H445.455C447.951 126.501 449.974 124.478 449.974 121.983V115.207C449.974 112.712 447.951 110.689 445.455 110.689Z" fill="#6C5CE7"/>
<path opacity="0.1" d="M335.983 55.3443H292.717C290.221 55.3443 288.198 57.3674 288.198 59.8631V66.6382C288.198 69.1338 290.221 71.157 292.717 71.157H335.983C338.478 71.157 340.501 69.1338 340.501 66.6382V59.8631C340.501 57.3674 338.478 55.3443 335.983 55.3443Z" fill="#6C5CE7"/>
<path opacity="0.1" d="M390.719 71.157H347.453C344.957 71.157 342.934 73.1801 342.934 75.6758V82.4509C342.934 84.9465 344.957 86.9696 347.453 86.9696H390.719C393.214 86.9696 395.238 84.9465 395.238 82.4509V75.6758C395.238 73.1801 393.214 71.157 390.719 71.157Z" fill="#6C5CE7"/>
<path opacity="0.1" d="M445.455 86.9697H402.189C399.693 86.9697 397.67 88.9928 397.67 91.4884V98.2636C397.67 100.759 399.693 102.782 402.189 102.782H445.455C447.951 102.782 449.974 100.759 449.974 98.2636V91.4884C449.974 88.9928 447.951 86.9697 445.455 86.9697Z" fill="#6C5CE7"/>
<path opacity="0.1" d="M165.692 23.719H122.427C119.931 23.719 117.908 25.7421 117.908 28.2378V35.0129C117.908 37.5085 119.931 39.5317 122.427 39.5317H165.692C168.188 39.5317 170.211 37.5085 170.211 35.0129V28.2378C170.211 25.7421 168.188 23.719 165.692 23.719Z" fill="#6C5CE7"/>
<path opacity="0.1" d="M220.429 39.5317H177.163C174.667 39.5317 172.644 41.5548 172.644 44.0505V50.8256C172.644 53.3212 174.667 55.3443 177.163 55.3443H220.429C222.924 55.3443 224.947 53.3212 224.947 50.8256V44.0505C224.947 41.5548 222.924 39.5317 220.429 39.5317Z" fill="#6C5CE7"/>
<path opacity="0.1" d="M275.165 55.3443H231.899C229.403 55.3443 227.38 57.3674 227.38 59.8631V66.6382C227.38 69.1338 229.403 71.157 231.899 71.157H275.165C277.66 71.157 279.683 69.1338 279.683 66.6382V59.8631C279.683 57.3674 277.66 55.3443 275.165 55.3443Z" fill="#6C5CE7"/>
<path opacity="0.1" d="M165.692 0H122.427C119.931 0 117.908 2.02312 117.908 4.51877V11.2939C117.908 13.7895 119.931 15.8127 122.427 15.8127H165.692C168.188 15.8127 170.211 13.7895 170.211 11.2939V4.51877C170.211 2.02312 168.188 0 165.692 0Z" fill="#6C5CE7"/>
<path opacity="0.1" d="M220.429 15.8127H177.163C174.667 15.8127 172.644 17.8358 172.644 20.3315V27.1066C172.644 29.6022 174.667 31.6253 177.163 31.6253H220.429C222.924 31.6253 224.947 29.6022 224.947 27.1066V20.3315C224.947 17.8358 222.924 15.8127 220.429 15.8127Z" fill="#6C5CE7"/>
<path opacity="0.1" d="M275.165 31.6253H231.899C229.403 31.6253 227.38 33.6484 227.38 36.1441V42.9192C227.38 45.4148 229.403 47.438 231.899 47.438H275.165C277.66 47.438 279.683 45.4148 279.683 42.9192V36.1441C279.683 33.6484 277.66 31.6253 275.165 31.6253Z" fill="#6C5CE7"/>
<path opacity="0.1" d="M335.983 23.719H292.717C290.221 23.719 288.198 25.7421 288.198 28.2378V35.0129C288.198 37.5085 290.221 39.5317 292.717 39.5317H335.983C338.478 39.5317 340.501 37.5085 340.501 35.0129V28.2378C340.501 25.7421 338.478 23.719 335.983 23.719Z" fill="#6C5CE7"/>
<path opacity="0.1" d="M390.719 39.5317H347.453C344.957 39.5317 342.934 41.5548 342.934 44.0505V50.8256C342.934 53.3212 344.957 55.3443 347.453 55.3443H390.719C393.214 55.3443 395.238 53.3212 395.238 50.8256V44.0505C395.238 41.5548 393.214 39.5317 390.719 39.5317Z" fill="#6C5CE7"/>
<path opacity="0.1" d="M445.455 55.3443H402.189C399.693 55.3443 397.67 57.3674 397.67 59.8631V66.6382C397.67 69.1338 399.693 71.157 402.189 71.157H445.455C447.951 71.157 449.974 69.1338 449.974 66.6382V59.8631C449.974 57.3674 447.951 55.3443 445.455 55.3443Z" fill="#6C5CE7"/>
<path opacity="0.1" d="M335.983 0H292.717C290.221 0 288.198 2.02312 288.198 4.51877V11.2939C288.198 13.7895 290.221 15.8127 292.717 15.8127H335.983C338.478 15.8127 340.501 13.7895 340.501 11.2939V4.51877C340.501 2.02312 338.478 0 335.983 0Z" fill="#6C5CE7"/>
<path opacity="0.1" d="M390.719 15.8127H347.453C344.957 15.8127 342.934 17.8358 342.934 20.3315V27.1066C342.934 29.6022 344.957 31.6253 347.453 31.6253H390.719C393.214 31.6253 395.238 29.6022 395.238 27.1066V20.3315C395.238 17.8358 393.214 15.8127 390.719 15.8127Z" fill="#6C5CE7"/>
<path opacity="0.1" d="M445.455 31.6253H402.189C399.693 31.6253 397.67 33.6484 397.67 36.1441V42.9192C397.67 45.4148 399.693 47.438 402.189 47.438H445.455C447.951 47.438 449.974 45.4148 449.974 42.9192V36.1441C449.974 33.6484 447.951 31.6253 445.455 31.6253Z" fill="#6C5CE7"/>
<path opacity="0.1" d="M165.692 360.65H122.427C119.931 360.65 117.908 362.674 117.908 365.169V371.944C117.908 374.44 119.931 376.463 122.427 376.463H165.692C168.188 376.463 170.211 374.44 170.211 371.944V365.169C170.211 362.674 168.188 360.65 165.692 360.65Z" fill="#6C5CE7"/>
<path opacity="0.1" d="M220.429 376.463H177.163C174.667 376.463 172.644 378.486 172.644 380.982V387.757C172.644 390.253 174.667 392.276 177.163 392.276H220.429C222.924 392.276 224.947 390.253 224.947 387.757V380.982C224.947 378.486 222.924 376.463 220.429 376.463Z" fill="#6C5CE7"/>
<path opacity="0.1" d="M275.165 392.276H231.899C229.403 392.276 227.38 394.299 227.38 396.794V403.57C227.38 406.065 229.403 408.088 231.899 408.088H275.165C277.66 408.088 279.683 406.065 279.683 403.57V396.794C279.683 394.299 277.66 392.276 275.165 392.276Z" fill="#6C5CE7"/>
<path opacity="0.1" d="M165.692 336.931H122.427C119.931 336.931 117.908 338.955 117.908 341.45V348.225C117.908 350.721 119.931 352.744 122.427 352.744H165.692C168.188 352.744 170.211 350.721 170.211 348.225V341.45C170.211 338.955 168.188 336.931 165.692 336.931Z" fill="#6C5CE7"/>
<path opacity="0.1" d="M220.429 352.744H177.163C174.667 352.744 172.644 354.767 172.644 357.263V364.038C172.644 366.534 174.667 368.557 177.163 368.557H220.429C222.924 368.557 224.947 366.534 224.947 364.038V357.263C224.947 354.767 222.924 352.744 220.429 352.744Z" fill="#6C5CE7"/>
<path opacity="0.1" d="M275.165 368.557H231.899C229.403 368.557 227.38 370.58 227.38 373.075V379.851C227.38 382.346 229.403 384.369 231.899 384.369H275.165C277.66 384.369 279.683 382.346 279.683 379.851V373.075C279.683 370.58 277.66 368.557 275.165 368.557Z" fill="#6C5CE7"/>
<path opacity="0.1" d="M335.983 360.65H292.717C290.221 360.65 288.198 362.674 288.198 365.169V371.944C288.198 374.44 290.221 376.463 292.717 376.463H335.983C338.478 376.463 340.501 374.44 340.501 371.944V365.169C340.501 362.674 338.478 360.65 335.983 360.65Z" fill="#6C5CE7"/>
<path opacity="0.1" d="M390.719 376.463H347.453C344.957 376.463 342.934 378.486 342.934 380.982V387.757C342.934 390.253 344.957 392.276 347.453 392.276H390.719C393.214 392.276 395.238 390.253 395.238 387.757V380.982C395.238 378.486 393.214 376.463 390.719 376.463Z" fill="#6C5CE7"/>
<path opacity="0.1" d="M445.455 392.276H402.189C399.693 392.276 397.67 394.299 397.67 396.794V403.57C397.67 406.065 399.693 408.088 402.189 408.088H445.455C447.951 408.088 449.974 406.065 449.974 403.57V396.794C449.974 394.299 447.951 392.276 445.455 392.276Z" fill="#6C5CE7"/>
<path opacity="0.1" d="M335.983 336.931H292.717C290.221 336.931 288.198 338.955 288.198 341.45V348.225C288.198 350.721 290.221 352.744 292.717 352.744H335.983C338.478 352.744 340.501 350.721 340.501 348.225V341.45C340.501 338.955 338.478 336.931 335.983 336.931Z" fill="#6C5CE7"/>
<path opacity="0.1" d="M390.719 352.744H347.453C344.957 352.744 342.934 354.767 342.934 357.263V364.038C342.934 366.534 344.957 368.557 347.453 368.557H390.719C393.214 368.557 395.238 366.534 395.238 364.038V357.263C395.238 354.767 393.214 352.744 390.719 352.744Z" fill="#6C5CE7"/>
<path opacity="0.1" d="M445.455 368.557H402.189C399.693 368.557 397.67 370.58 397.67 373.075V379.851C397.67 382.346 399.693 384.369 402.189 384.369H445.455C447.951 384.369 449.974 382.346 449.974 379.851V373.075C449.974 370.58 447.951 368.557 445.455 368.557Z" fill="#6C5CE7"/>
<path opacity="0.1" d="M165.692 305.306H122.427C119.931 305.306 117.908 307.329 117.908 309.825V316.6C117.908 319.096 119.931 321.119 122.427 321.119H165.692C168.188 321.119 170.211 319.096 170.211 316.6V309.825C170.211 307.329 168.188 305.306 165.692 305.306Z" fill="#6C5CE7"/>
<path opacity="0.1" d="M220.429 321.119H177.163C174.667 321.119 172.644 323.142 172.644 325.638V332.413C172.644 334.908 174.667 336.931 177.163 336.931H220.429C222.924 336.931 224.947 334.908 224.947 332.413V325.638C224.947 323.142 222.924 321.119 220.429 321.119Z" fill="#6C5CE7"/>
<path opacity="0.1" d="M275.165 336.931H231.899C229.403 336.931 227.38 338.955 227.38 341.45V348.225C227.38 350.721 229.403 352.744 231.899 352.744H275.165C277.66 352.744 279.683 350.721 279.683 348.225V341.45C279.683 338.955 277.66 336.931 275.165 336.931Z" fill="#6C5CE7"/>
<path opacity="0.1" d="M165.692 281.587H122.427C119.931 281.587 117.908 283.61 117.908 286.106V292.881C117.908 295.377 119.931 297.4 122.427 297.4H165.692C168.188 297.4 170.211 295.377 170.211 292.881V286.106C170.211 283.61 168.188 281.587 165.692 281.587Z" fill="#6C5CE7"/>
<path opacity="0.1" d="M220.429 297.4H177.163C174.667 297.4 172.644 299.423 172.644 301.918V308.694C172.644 311.189 174.667 313.212 177.163 313.212H220.429C222.924 313.212 224.947 311.189 224.947 308.694V301.918C224.947 299.423 222.924 297.4 220.429 297.4Z" fill="#6C5CE7"/>
<path opacity="0.1" d="M275.165 313.212H231.899C229.403 313.212 227.38 315.236 227.38 317.731V324.506C227.38 327.002 229.403 329.025 231.899 329.025H275.165C277.66 329.025 279.683 327.002 279.683 324.506V317.731C279.683 315.236 277.66 313.212 275.165 313.212Z" fill="#6C5CE7"/>
<path opacity="0.1" d="M335.983 305.306H292.717C290.221 305.306 288.198 307.329 288.198 309.825V316.6C288.198 319.096 290.221 321.119 292.717 321.119H335.983C338.478 321.119 340.501 319.096 340.501 316.6V309.825C340.501 307.329 338.478 305.306 335.983 305.306Z" fill="#6C5CE7"/>
<path opacity="0.1" d="M390.719 321.119H347.453C344.957 321.119 342.934 323.142 342.934 325.638V332.413C342.934 334.908 344.957 336.931 347.453 336.931H390.719C393.214 336.931 395.238 334.908 395.238 332.413V325.638C395.238 323.142 393.214 321.119 390.719 321.119Z" fill="#6C5CE7"/>
<path opacity="0.1" d="M445.455 336.931H402.189C399.693 336.931 397.67 338.955 397.67 341.45V348.225C397.67 350.721 399.693 352.744 402.189 352.744H445.455C447.951 352.744 449.974 350.721 449.974 348.225V341.45C449.974 338.955 447.951 336.931 445.455 336.931Z" fill="#6C5CE7"/>
<path opacity="0.1" d="M335.983 281.587H292.717C290.221 281.587 288.198 283.61 288.198 286.106V292.881C288.198 295.377 290.221 297.4 292.717 297.4H335.983C338.478 297.4 340.501 295.377 340.501 292.881V286.106C340.501 283.61 338.478 281.587 335.983 281.587Z" fill="#6C5CE7"/>
<path opacity="0.1" d="M390.719 297.4H347.453C344.957 297.4 342.934 299.423 342.934 301.918V308.694C342.934 311.189 344.957 313.212 347.453 313.212H390.719C393.214 313.212 395.238 311.189 395.238 308.694V301.918C395.238 299.423 393.214 297.4 390.719 297.4Z" fill="#6C5CE7"/>
<path opacity="0.1" d="M445.455 313.212H402.189C399.693 313.212 397.67 315.236 397.67 317.731V324.506C397.67 327.002 399.693 329.025 402.189 329.025H445.455C447.951 329.025 449.974 327.002 449.974 324.506V317.731C449.974 315.236 447.951 313.212 445.455 313.212Z" fill="#6C5CE7"/>
<path opacity="0.1" d="M293.368 461C440.655 461 560.054 451.198 560.054 439.106C560.054 427.014 440.655 417.211 293.368 417.211C146.081 417.211 26.6808 427.014 26.6808 439.106C26.6808 451.198 146.081 461 293.368 461Z" fill="#6C5CE7"/>
<path d="M51.4824 113.608C76.6306 124.506 91.0809 147.058 91.0809 147.058C91.0809 147.058 64.7529 151.923 39.5986 141.031C14.4443 130.138 0 107.581 0 107.581C0 107.581 26.3281 102.709 51.4824 113.608Z" fill="#6C5CE7"/>
<path d="M128.66 71.7652C136.439 58.9934 149.685 52.9116 149.685 52.9116C149.685 52.9116 150.293 67.4714 142.539 80.2067C134.785 92.942 121.508 99.0177 121.508 99.0177C121.508 99.0177 120.876 84.464 128.66 71.7652Z" fill="#6C5CE7"/>
<path d="M71.4793 85.4309C77.0442 105.294 92.3825 118.37 92.3825 118.37C92.3825 118.37 98.7014 99.2305 93.1366 79.3613C87.5718 59.4921 72.2274 46.4223 72.2274 46.4223C72.2274 46.4223 65.9084 65.5617 71.4793 85.4309Z" fill="#46455B"/>
<path d="M511.272 84.5369H76.6793C74.2575 84.5369 72.2943 86.5002 72.2943 88.9219V302.137C72.2943 304.559 74.2575 306.522 76.6793 306.522H511.272C513.694 306.522 515.657 304.559 515.657 302.137V88.9219C515.657 86.5002 513.694 84.5369 511.272 84.5369Z" fill="#3F3D56"/>
<path opacity="0.1" d="M72.2943 293.142H515.657V302.137C515.657 303.3 515.195 304.416 514.373 305.238C513.55 306.06 512.435 306.522 511.272 306.522H76.6793C75.5163 306.522 74.401 306.06 73.5786 305.238C72.7563 304.416 72.2943 303.3 72.2943 302.137V293.142Z" fill="black"/>
<path d="M146.796 276.722H116.995C116.156 276.722 115.475 277.402 115.475 278.242V291.622C115.475 292.462 116.156 293.142 116.995 293.142H146.796C147.636 293.142 148.317 292.462 148.317 291.622V278.242C148.317 277.402 147.636 276.722 146.796 276.722Z" fill="#6C5CE7"/>
<path d="M178.726 290.71H158.656C157.984 290.71 157.439 291.254 157.439 291.926C157.439 292.598 157.984 293.142 158.656 293.142H178.726C179.397 293.142 179.942 292.598 179.942 291.926C179.942 291.254 179.397 290.71 178.726 290.71Z" fill="#6C5CE7"/>
<path d="M137.461 127.949C153.511 130.911 169.883 127.949 185.866 125.942L234.441 119.86C236.405 119.611 239.264 118.437 240.419 120.839C241.07 122.183 240.632 125.096 240.681 126.641C240.809 130.898 240.796 135.156 240.681 139.413C240.462 147.55 239.866 155.67 239.106 163.771C237.628 179.626 235.536 195.396 234.49 211.312C233.954 219.413 233.687 227.538 233.924 235.639C233.979 237.573 234.058 239.507 234.173 241.435C234.301 243.594 235.268 246.799 232.914 248.241C231.57 249.068 228.925 249.025 227.386 249.268C224.953 249.652 222.521 249.956 220.039 250.205C203.685 251.841 187.119 251.16 170.704 251.063L121.137 250.807L109.047 250.74C107.952 250.74 104.005 251.397 103.33 250.096C103.044 249.542 103.804 246.951 103.938 246.258C104.124 245.115 104.327 243.973 104.546 242.834C105.957 234.836 107.623 226.887 109.302 218.945C112.909 201.916 116.6 184.801 118.084 167.407C118.82 158.68 118.333 149.874 119.234 141.164C119.653 137.12 120.152 128.095 125.534 127.736C130.096 127.432 134.791 127.736 139.364 127.736C139.606 127.736 139.838 127.64 140.009 127.469C140.18 127.298 140.277 127.066 140.277 126.824C140.277 126.582 140.18 126.35 140.009 126.179C139.838 126.007 139.606 125.911 139.364 125.911C135.046 125.911 130.722 125.796 126.404 125.881C123.533 125.936 121.539 126.617 120.17 129.256C116.673 136.031 117.032 145.069 116.923 152.464C116.661 170.169 113.942 187.496 110.403 204.81C108.621 213.526 106.699 222.21 104.929 230.932C104.096 235.098 103.299 239.276 102.569 243.466C102.229 245.461 100.508 249.858 102.022 251.689C103.536 253.52 108.195 252.534 110.281 252.546L124.792 252.632L152.598 252.79C170.564 252.893 188.59 253.398 206.55 252.869C215.125 252.613 224.187 252.261 232.537 250.211C235.025 249.603 236.223 248.46 236.32 245.808C236.466 241.697 235.797 237.458 235.712 233.328C235.104 197.993 243.406 163.15 242.554 127.803C242.499 125.4 243.406 119.343 240.778 117.889C239.598 117.233 238.066 117.591 236.825 117.737C234.453 118.011 232.087 118.346 229.715 118.625L198.911 122.469C189.065 123.685 179.224 124.999 169.36 126.118C158.917 127.334 148.371 128.058 137.966 126.118C136.816 125.905 136.323 127.663 137.479 127.876L137.461 127.949Z" fill="#6C5CE7"/>
<path d="M118.096 149.448L239.623 143.488C240.796 143.427 240.803 141.602 239.623 141.663L118.096 147.623C116.929 147.678 116.922 149.503 118.096 149.448Z" fill="#6C5CE7"/>
<path d="M155.536 134.408C155.196 134.768 154.949 135.206 154.817 135.683C154.685 136.16 154.671 136.662 154.777 137.146C154.883 137.63 155.106 138.08 155.426 138.458C155.746 138.837 156.153 139.131 156.612 139.316C158.248 140.064 160.17 139.437 161.794 139.03C164.227 138.422 166.659 137.88 169.159 137.436C174.599 136.473 180.11 135.961 185.635 135.904C188.152 135.873 190.652 135.989 193.17 136.098C194.994 136.171 196.959 136.317 198.504 135.186C200.267 133.897 200.839 131.379 199.112 129.81C196.679 127.59 191.437 128.879 188.627 129.11C178.431 129.957 168.302 131.469 158.303 133.635C157.16 133.879 157.64 135.642 158.79 135.393C165.386 133.97 172.034 132.826 178.732 131.963C182.024 131.557 185.322 131.215 188.627 130.935C190.184 130.807 191.741 130.692 193.298 130.6C193.906 130.564 194.551 130.497 195.171 130.515C197.099 130.558 197.324 130.211 196.168 132.541C195.14 134.602 195.469 134.365 193.687 134.298C192.933 134.298 192.179 134.213 191.424 134.177C189.88 134.112 188.335 134.077 186.79 134.073C183.502 134.073 180.222 134.231 176.95 134.548C174.176 134.815 171.409 135.192 168.666 135.679C166.951 135.983 165.248 136.336 163.552 136.725C162.804 136.901 162.049 137.084 161.301 137.272C160.943 137.369 160.578 137.455 160.219 137.546C158.889 138.008 157.756 137.4 156.819 135.721C157.634 134.876 156.351 133.581 155.53 134.432L155.536 134.408Z" fill="#6C5CE7"/>
<path d="M177.564 160.365C168.764 160.024 159.258 162.402 153.462 169.487C148.925 175.028 146.34 184.534 151.145 190.774C156.308 197.464 167.632 196.284 174.462 193.431C181.688 190.391 189.594 184.12 191.765 176.275C194.471 166.477 185.683 159.069 176.53 158.96C175.356 158.96 175.356 160.784 176.53 160.784C181.748 160.845 186.869 163.083 189.302 167.943C191.85 173.064 189.655 178.44 186.261 182.539C180.824 189.065 172.322 193.985 163.661 193.845C158.461 193.766 152.714 191.984 151.102 186.498C149.776 182.052 150.786 177.193 153.097 173.252C158.096 164.738 168.271 161.855 177.601 162.22C178.774 162.262 178.774 160.438 177.601 160.395L177.564 160.365Z" fill="#6C5CE7"/>
<path d="M168.825 173.878C168.449 173.739 168.045 173.698 167.649 173.757C167.254 173.816 166.879 173.974 166.561 174.217C166.243 174.46 165.992 174.779 165.83 175.145C165.669 175.512 165.602 175.913 165.638 176.311C165.82 178.683 168.435 179.352 170.4 179.212C172.097 179.066 174.079 178.44 173.483 176.317C173.374 175.942 173.184 175.594 172.928 175.298C172.672 175.002 172.355 174.765 171.999 174.602C171.455 174.386 170.865 174.313 170.284 174.389C170.059 174.389 167.997 175.143 168.873 174.237L167.438 174.049C167.597 174.206 167.719 174.397 167.795 174.607C167.871 174.818 167.898 175.043 167.876 175.265C167.879 175.424 167.922 175.58 168.003 175.716C168.084 175.853 168.199 175.967 168.337 176.046C168.475 176.125 168.631 176.167 168.79 176.168C168.949 176.168 169.106 176.128 169.244 176.05C169.453 175.962 169.682 175.935 169.905 175.97C170.129 176.006 170.338 176.103 170.509 176.251C170.68 176.399 170.807 176.592 170.874 176.807C170.942 177.023 170.948 177.254 170.892 177.473C170.843 177.683 170.87 177.905 170.968 178.097C171.067 178.29 171.23 178.442 171.429 178.526C171.628 178.611 171.851 178.622 172.057 178.558C172.264 178.495 172.442 178.36 172.559 178.178C173.167 177.084 173.903 174.906 172.991 173.763C172.382 172.991 171.209 173.222 170.479 173.672C170.028 173.99 169.609 174.351 169.226 174.748C168.49 175.399 168.01 175.703 168.283 174.456C168.739 172.188 170.904 170.381 172.881 169.475L171.543 168.447C170.842 171.084 169.587 173.54 167.864 175.654L169.421 176.299C169.376 175.464 169.591 174.636 170.035 173.927C170.479 173.218 171.131 172.664 171.902 172.34H171.008L171.482 173.118C171.306 174.268 173.064 174.76 173.24 173.599C173.471 172.097 172.522 170.144 170.765 170.88C168.666 171.756 167.578 174.158 167.62 176.299C167.62 177.029 168.654 177.594 169.183 176.95C171.118 174.6 172.529 171.865 173.325 168.928C173.367 168.754 173.358 168.571 173.298 168.402C173.238 168.233 173.131 168.085 172.988 167.976C172.846 167.867 172.675 167.802 172.496 167.788C172.317 167.775 172.138 167.814 171.981 167.9C170.159 168.724 168.619 170.064 167.553 171.756C166.811 172.972 165.881 174.87 166.635 176.269C166.759 176.492 166.925 176.689 167.126 176.848C167.326 177.007 167.556 177.125 167.802 177.195C168.048 177.264 168.305 177.284 168.559 177.254C168.813 177.223 169.058 177.143 169.281 177.017C169.843 176.683 170.357 176.274 170.807 175.8C171.032 175.6 171.282 175.253 171.58 175.192C171.847 175.01 171.835 175.113 171.537 175.514C171.533 176.145 171.349 176.761 171.008 177.29L172.674 177.99C172.824 177.422 172.807 176.823 172.624 176.265C172.441 175.706 172.1 175.213 171.643 174.845C171.185 174.476 170.631 174.248 170.047 174.188C169.462 174.127 168.873 174.237 168.35 174.505L169.725 175.296C169.753 174.522 169.51 173.762 169.037 173.149C168.966 173.03 168.868 172.93 168.752 172.854C168.636 172.778 168.505 172.73 168.368 172.712C168.231 172.694 168.091 172.707 167.96 172.75C167.828 172.793 167.708 172.865 167.608 172.96C166.684 173.927 166.507 175.6 167.669 176.494C168.539 177.157 168.964 176.494 169.919 176.342C173.161 175.922 171.269 177.382 170.126 177.43C169.615 177.485 169.098 177.448 168.599 177.321C167.33 176.891 167.251 176.338 168.362 175.66C169.451 176.104 169.919 174.341 168.849 173.903L168.825 173.878Z" fill="#6C5CE7"/>
<path d="M167.359 177.211C168.107 179.644 165.017 180.447 163.552 181.286C162.523 181.863 161.626 182.648 160.918 183.591C159.386 185.647 158.814 188.262 158.309 190.725C158.078 191.875 159.836 192.361 160.073 191.212C160.351 189.402 160.868 187.637 161.611 185.963C162.706 183.786 164.275 183.056 166.319 181.937C168.362 180.818 169.84 179.084 169.116 176.725C168.776 175.606 167.012 176.086 167.359 177.211Z" fill="#6C5CE7"/>
<path d="M170.4 175.989C169.965 176.049 169.568 176.269 169.286 176.607C169.005 176.944 168.86 177.375 168.879 177.813C168.879 178.537 169.36 178.999 169.688 179.577C170.468 180.759 171.062 182.053 171.452 183.415C171.744 184.722 172.03 187.064 171.348 188.28C170.09 190.537 167.815 190.105 165.875 190.105C164.05 190.105 162.639 190.713 162.7 188.171C162.737 186.742 163.734 185.294 164.525 184.169L162.858 183.95C163.21 185.807 163.395 187.692 163.412 189.582C163.412 190.427 164.707 190.895 165.109 190.038C166.086 187.981 166.862 185.834 167.426 183.628L165.632 183.384L165.948 188.007C165.953 188.204 166.022 188.394 166.144 188.549C166.266 188.704 166.434 188.816 166.625 188.868C166.815 188.92 167.017 188.909 167.201 188.837C167.384 188.765 167.54 188.636 167.645 188.469C167.858 188.234 168.014 187.953 168.101 187.648C168.162 187.362 167.602 185.434 167.377 186.121L169.165 186.364L169.293 181.973L167.468 182.217C167.854 183.455 167.97 184.761 167.809 186.048C167.693 187.064 169.402 187.295 169.633 186.291L170.777 180.392L169.11 180.605C169.506 181.421 169.616 182.347 169.421 183.232C169.287 184.4 171.111 184.388 171.245 183.232C171.4 182.021 171.206 180.791 170.686 179.687C170.593 179.534 170.458 179.412 170.298 179.335C170.137 179.258 169.958 179.23 169.781 179.253C169.604 179.276 169.438 179.35 169.303 179.466C169.168 179.582 169.069 179.735 169.019 179.906L167.87 185.805L169.664 186.048C169.846 184.598 169.707 183.126 169.256 181.736C169.195 181.527 169.061 181.346 168.879 181.227C168.696 181.108 168.477 181.058 168.26 181.087C168.044 181.115 167.845 181.221 167.7 181.383C167.555 181.546 167.473 181.755 167.468 181.973L167.341 186.364C167.341 187.429 168.818 187.581 169.135 186.608L169.232 186.31C169.274 186.154 169.275 185.991 169.234 185.835C169.194 185.679 169.113 185.537 169.001 185.422C167.109 183.366 166.726 186.638 166.069 187.544L167.772 188.007L167.456 183.384C167.389 182.399 165.93 182.095 165.662 183.141C165.148 185.198 164.435 187.2 163.533 189.119L165.236 189.582C165.217 187.528 165.013 185.481 164.628 183.463C164.47 182.624 163.369 182.661 162.962 183.244C161.745 184.996 159.641 188.821 161.265 190.92C162.682 192.744 167.14 192.039 169.043 191.923C172.048 191.753 173.137 189.849 173.465 187.015C173.621 185.658 173.545 184.284 173.24 182.953C173.076 182.235 171.415 177.686 170.917 177.777C172.072 177.564 171.58 175.8 170.43 176.013L170.4 175.989Z" fill="#6C5CE7"/>
<path d="M166.866 180.088L161.885 186.662L163.46 187.581L167.109 182.302L165.443 181.596L163.625 188.536C163.576 188.746 163.603 188.968 163.701 189.16C163.799 189.353 163.962 189.505 164.161 189.589C164.36 189.674 164.583 189.685 164.79 189.621C164.996 189.558 165.174 189.423 165.291 189.241C166.118 187.87 167.048 186.563 168.07 185.331L166.55 184.443C166.142 186.014 165.354 187.461 164.257 188.657L165.784 189.545C165.877 188.705 166.101 187.884 166.447 187.112C166.915 186.06 165.431 185.13 164.871 186.188C164.357 187.152 163.769 188.075 163.114 188.949L164.78 189.168L165.151 187.435L163.485 187.216L163.752 188.736C163.796 188.889 163.879 189.028 163.993 189.139C164.107 189.251 164.248 189.331 164.401 189.371C164.555 189.412 164.717 189.411 164.871 189.37C165.025 189.329 165.165 189.249 165.279 189.138C166.821 187.541 168.058 185.676 168.928 183.634H167.359C167.771 184.394 168.061 185.215 168.216 186.066C168.435 187.161 169.889 186.754 170.004 185.823C170.266 183.786 170.4 181.734 170.406 179.681H168.581V183.506C168.581 184.497 170.205 184.789 170.375 183.749C170.496 182.827 170.8 181.937 171.269 181.134H169.67C170.055 181.756 170.266 182.47 170.278 183.202C170.278 183.444 170.374 183.676 170.545 183.847C170.716 184.018 170.948 184.114 171.19 184.114C171.432 184.114 171.664 184.018 171.835 183.847C172.006 183.676 172.103 183.444 172.103 183.202L172.334 181.986H170.576C170.752 183.062 171.421 189.126 169.043 188.414C168.642 188.317 168.527 188.341 168.697 188.481L169.238 187.325L170.509 184.631L168.806 184.169C168.916 185.422 169.031 187.21 168.277 188.28C167.669 189.15 165.796 189.497 164.841 188.986C164.211 188.536 163.672 187.971 163.254 187.319L162.007 188.536C163.016 189.272 164.652 191.078 165.954 191.181C166.945 191.26 167.778 190.439 168.429 189.782C169.427 188.751 170.206 187.527 170.717 186.186C171.228 184.845 171.462 183.414 171.403 181.979C171.403 181.737 171.307 181.505 171.136 181.334C170.965 181.163 170.733 181.067 170.491 181.067C170.249 181.067 170.017 181.163 169.846 181.334C169.675 181.505 169.579 181.737 169.579 181.979V184.059C169.579 184.301 169.675 184.533 169.846 184.704C170.017 184.876 170.249 184.972 170.491 184.972C170.733 184.972 170.965 184.876 171.136 184.704C171.307 184.533 171.403 184.301 171.403 184.059V178.957C171.403 178.715 171.307 178.483 171.136 178.312C170.965 178.141 170.733 178.045 170.491 178.045C170.249 178.045 170.017 178.141 169.846 178.312C169.675 178.483 169.579 178.715 169.579 178.957C169.575 180.18 169.47 181.4 169.262 182.606L171.057 182.849C170.914 181.396 170.847 179.936 170.856 178.476C170.853 178.258 170.772 178.047 170.627 177.884C170.482 177.72 170.283 177.614 170.067 177.584C169.85 177.555 169.63 177.604 169.447 177.723C169.263 177.842 169.129 178.023 169.068 178.233C168.794 179.395 168.46 180.538 168.137 181.675L169.804 181.456L169.676 180.97C169.591 179.808 167.766 179.802 167.851 180.97C167.871 181.462 168 181.944 168.229 182.381C168.581 183.123 169.682 182.861 169.895 182.162C170.242 181.019 170.552 179.875 170.825 178.72L169.031 178.476C169.022 179.936 169.089 181.396 169.232 182.849C169.323 183.786 170.832 184.187 171.02 183.092C171.263 181.719 171.391 180.327 171.403 178.932H169.579V184.035H171.403V181.955H169.579C169.686 184.249 168.889 186.494 167.359 188.207C167.122 188.477 166.866 188.729 166.593 188.961C166.161 189.375 165.765 189.314 165.419 188.773C164.555 188.414 163.661 187.49 162.907 186.948C162.153 186.407 161.119 187.477 161.654 188.195C163.053 190.056 165.139 192.13 167.736 191.236C170.467 190.269 170.838 186.571 170.631 184.138C170.564 183.33 169.354 182.782 168.934 183.682C168.326 184.966 167.718 186.243 167.109 187.532C166.897 187.982 166.501 188.603 166.562 189.138C166.763 190.506 168.423 190.281 169.445 190.202C173.404 189.904 172.778 184.291 172.322 181.469C172.17 180.532 170.807 180.678 170.564 181.469C170.371 182.024 170.27 182.608 170.266 183.196H172.09C172.024 182.15 171.732 181.131 171.233 180.21C171.151 180.074 171.036 179.961 170.898 179.883C170.76 179.805 170.604 179.764 170.445 179.764C170.287 179.764 170.131 179.805 169.993 179.883C169.855 179.961 169.739 180.074 169.658 180.21C169.114 181.149 168.747 182.179 168.575 183.251L170.4 183.494V179.668C170.4 179.426 170.304 179.194 170.133 179.023C169.961 178.852 169.729 178.756 169.487 178.756C169.245 178.756 169.013 178.852 168.842 179.023C168.671 179.194 168.575 179.426 168.575 179.668C168.569 181.722 168.435 183.774 168.174 185.811L169.968 185.568C169.761 184.573 169.411 183.615 168.928 182.721C168.846 182.585 168.731 182.473 168.593 182.395C168.455 182.316 168.299 182.275 168.14 182.275C167.982 182.275 167.826 182.316 167.688 182.395C167.55 182.473 167.434 182.585 167.353 182.721C166.56 184.626 165.419 186.367 163.989 187.854L165.516 188.256L165.248 186.735C165.109 185.927 163.965 185.902 163.582 186.516C163.28 186.974 163.075 187.488 162.979 188.028C162.884 188.568 162.901 189.122 163.029 189.655C163.181 190.518 164.275 190.427 164.695 189.874C165.35 189.002 165.938 188.08 166.453 187.119L164.877 186.194C164.457 187.103 164.17 188.068 164.026 189.059C163.917 189.861 164.871 190.701 165.553 189.947C166.86 188.516 167.807 186.794 168.314 184.923C168.539 184.096 167.395 183.311 166.787 184.035C165.668 185.376 164.652 186.799 163.746 188.292L165.413 188.998L167.268 182.083C167.317 181.872 167.29 181.651 167.191 181.458C167.093 181.265 166.93 181.113 166.731 181.029C166.532 180.945 166.309 180.934 166.103 180.997C165.896 181.061 165.718 181.196 165.601 181.377L161.952 186.662C161.271 187.642 162.834 188.487 163.527 187.581L168.49 181.012C169.196 180.076 167.614 179.188 166.915 180.088H166.866Z" fill="#6C5CE7"/>
<path d="M244.458 202.037C251.756 197.573 257.558 190.914 264.005 185.343C270.999 179.303 278.339 173.678 285.899 168.35C300.58 158.011 315.998 148.761 331.403 139.535C331.603 139.408 331.746 139.21 331.802 138.98C331.858 138.751 331.822 138.508 331.703 138.304C331.584 138.1 331.391 137.95 331.164 137.886C330.936 137.822 330.693 137.848 330.485 137.959C315.079 147.186 299.656 156.418 284.975 166.775C278.047 171.64 271.284 176.798 264.801 182.271C257.746 188.232 251.464 195.651 243.515 200.462C242.512 201.07 243.43 202.651 244.433 202.037H244.458Z" fill="#6C5CE7"/>
<path d="M354.958 111.206C347.052 112.008 338.537 114.021 333.672 120.936C329.469 126.884 329.56 137.26 333.507 143.366C337.99 150.305 347.149 150.555 354.264 148.311C361.38 146.066 368.745 142.131 368.678 133.629C368.642 129.068 366.994 124.318 365.175 120.182C363.606 116.612 360.827 113.492 356.618 113.888C355.457 113.997 355.444 115.822 356.618 115.712C362.256 115.189 364.068 121.885 365.406 126.112C366.623 130.059 367.748 134.73 365.838 138.653C363.928 142.575 359.325 144.576 355.39 146.012C351.132 147.556 346.455 148.499 342.01 147.228C333.203 144.765 330.771 133.605 333.307 125.686C336.226 116.564 346.565 113.882 354.988 113.03C356.144 112.915 356.156 111.09 354.988 111.206H354.958Z" fill="#6C5CE7"/>
<path d="M367.121 181.754C359.215 182.557 350.701 184.57 345.835 191.485C341.633 197.433 341.724 207.809 345.671 213.915C350.153 220.854 359.312 221.104 366.428 218.859C373.544 216.615 380.909 212.68 380.842 204.178C380.805 199.617 379.157 194.867 377.339 190.731C375.77 187.161 372.99 184.041 368.782 184.436C367.62 184.546 367.608 186.37 368.782 186.261C374.42 185.738 376.232 192.434 377.57 196.661C378.786 200.608 379.911 205.279 378.002 209.202C376.092 213.124 371.488 215.125 367.553 216.561C363.296 218.105 358.619 219.048 354.173 217.777C345.367 215.314 342.934 204.154 345.47 196.235C348.39 187.112 358.729 184.43 367.152 183.579C368.307 183.463 368.32 181.639 367.152 181.754H367.121Z" fill="#6C5CE7"/>
<path d="M343.031 128.971L348.791 135.539C348.905 135.649 349.045 135.728 349.199 135.767C349.352 135.807 349.513 135.806 349.666 135.765C349.819 135.724 349.959 135.644 350.072 135.533C350.185 135.422 350.268 135.284 350.311 135.131C351.528 131.932 351.297 128.618 351.582 125.255C351.898 121.778 352.77 118.376 354.167 115.177C356.973 108.689 361.731 103.237 367.778 99.5772C368.782 98.969 367.863 97.3878 366.86 98.002C360.897 101.593 356.113 106.848 353.097 113.121C351.62 116.174 350.596 119.425 350.056 122.773C349.448 126.72 350.001 130.856 348.542 134.645L350.068 134.237L344.339 127.681C343.561 126.799 342.277 128.095 343.05 128.971H343.031Z" fill="#6C5CE7"/>
<path d="M247.395 209.147C278.765 208.19 310.143 207.987 341.529 208.539C342.703 208.539 342.703 206.714 341.529 206.714C310.151 206.155 278.773 206.357 247.395 207.322C246.221 207.359 246.215 209.183 247.395 209.147Z" fill="#6C5CE7"/>
<path d="M348.085 191.157C358.809 195.366 369.124 200.549 378.902 206.641C379.899 207.249 380.818 205.686 379.82 205.066C369.914 198.898 359.462 193.654 348.596 189.399C347.508 188.967 347.033 190.731 348.116 191.157H348.085Z" fill="#6C5CE7"/>
<path d="M367.559 182.892C356.685 195.569 350.386 211.532 349.673 228.219C349.624 229.393 351.449 229.393 351.497 228.219C352.188 212.011 358.298 196.504 368.849 184.181C369.609 183.293 368.326 181.998 367.559 182.892Z" fill="#6C5CE7"/>
<path d="M124.318 202.524L192.294 201.636L200.109 201.532C201.514 201.532 202.919 201.484 204.324 201.478C206.301 201.478 207.632 203.12 207.596 205.127C207.505 209.384 204.829 209.232 201.326 209.384L192.878 209.767L158.479 211.282C152.319 211.555 146.152 211.89 139.991 212.103C134.432 212.273 123.862 210.46 126.331 202.372C126.672 201.247 124.914 200.766 124.567 201.885C123.351 205.863 125.504 209.901 128.971 211.987C133.891 214.943 140.374 213.939 145.805 213.696L188.037 211.78L198.291 211.324C200.918 211.202 204.573 211.738 206.988 210.515C209.822 209.086 210.321 203.412 208.533 201.022C207.614 199.805 206.325 199.696 204.883 199.641C201.101 199.495 197.251 199.744 193.462 199.793L172.407 200.073L124.294 200.681C123.12 200.681 123.12 202.506 124.294 202.506L124.318 202.524Z" fill="#6C5CE7"/>
<path d="M398.96 426.03C397.427 426.991 395.675 427.532 394.094 428.377C392.513 429.223 390.974 430.494 390.524 432.245C390.356 432.789 390.384 433.374 390.603 433.9C390.997 434.534 391.599 435.011 392.306 435.25C395.518 436.676 398.988 437.433 402.503 437.472C406.017 437.512 409.503 436.834 412.747 435.481C413.888 434.932 415.067 434.465 416.275 434.082C417.762 433.779 419.275 433.624 420.793 433.62C422.389 433.527 423.976 433.323 425.543 433.012C426.331 432.924 427.078 432.614 427.696 432.118C428.26 431.468 428.599 430.653 428.663 429.794C429.383 425.056 428.298 420.22 425.622 416.244C425.285 415.687 424.833 415.208 424.296 414.839C423.642 414.501 422.922 414.308 422.186 414.274C419.145 413.903 415.958 413.221 412.887 413.148C410.685 413.1 409.578 414.146 408.022 415.66C404.804 418.877 402.925 423.554 398.96 426.03Z" fill="#323444"/>
<path d="M443.776 425.58C443.776 428.56 444.135 431.716 445.941 434.094C446.767 435.122 447.768 435.997 448.897 436.679C452.717 439.112 457.777 440.006 461.803 437.944C462.453 437.652 463.009 437.184 463.408 436.594C464.017 435.536 463.694 434.216 463.354 433.048L457.527 412.857C453.763 413.434 448.228 413.842 444.883 415.751C442.457 417.132 443.776 422.916 443.776 425.58Z" fill="#323444"/>
<path d="M395.542 301.25C395.189 302.363 393.912 302.879 393.212 303.816C392.391 304.917 392.476 306.443 392.774 307.781C393.143 309.754 394.069 311.58 395.444 313.042C396.142 313.766 397.003 314.313 397.955 314.637C398.907 314.961 399.923 315.052 400.918 314.903C402.876 314.532 404.567 312.799 404.634 310.81C404.599 309.906 404.405 309.014 404.062 308.177L399.914 296.183C399.898 296.099 399.863 296.018 399.812 295.948C399.762 295.878 399.697 295.819 399.623 295.776C399.466 295.741 399.302 295.77 399.166 295.855C398.187 296.317 396.223 296.804 395.651 297.819C395.079 298.835 395.955 300.149 395.542 301.25Z" fill="#FBB3B2"/>
<path d="M393.602 300.647C395.116 300.41 396.442 299.522 397.859 298.938C399.276 298.355 401.052 298.13 402.244 299.103C402.584 299.382 402.913 299.766 403.357 299.76C402.753 296.786 401.84 293.883 400.632 291.099C400.59 290.966 400.507 290.849 400.395 290.765C400.229 290.697 400.044 290.697 399.878 290.765L395.785 291.835C394.271 292.23 394.094 292.109 394.21 293.599C394.24 294.262 394.581 300.647 393.602 300.647Z" fill="#323444"/>
<path d="M393.152 214.043C392.543 214.979 392.543 216.147 392.543 217.248C392.543 222.63 392.598 228.043 393.395 233.371C393.583 234.648 393.82 235.925 393.942 237.214C394.08 239.009 394.108 240.811 394.027 242.609L393.419 266.024C393.346 268.888 393.2 271.966 391.43 274.216C390.894 274.97 390.642 275.89 390.719 276.813C391.181 282.688 392.154 288.514 393.121 294.322C394.678 293.62 396.379 293.296 398.085 293.378C399.791 293.459 401.454 293.943 402.937 294.791C406.006 285.142 407.703 275.111 407.979 264.99C408.119 260.009 407.906 254.997 408.672 250.077C409.956 241.794 409.432 233.298 408.49 224.966C408.192 222.326 407.559 219.608 405.869 217.564C404.268 215.776 402.136 214.548 399.787 214.061C397.536 213.471 395.523 214.079 393.152 214.043Z" fill="#5B5583"/>
<path opacity="0.1" d="M393.152 214.043C392.543 214.979 392.543 216.147 392.543 217.248C392.543 222.63 392.598 228.043 393.395 233.371C393.583 234.648 393.82 235.925 393.942 237.214C394.08 239.009 394.108 240.811 394.027 242.609L393.419 266.024C393.346 268.888 393.2 271.966 391.43 274.216C390.894 274.97 390.642 275.89 390.719 276.813C391.181 282.688 392.154 288.514 393.121 294.322C394.678 293.62 396.379 293.296 398.085 293.378C399.791 293.459 401.454 293.943 402.937 294.791C406.006 285.142 407.703 275.111 407.979 264.99C408.119 260.009 407.906 254.997 408.672 250.077C409.956 241.794 409.432 233.298 408.49 224.966C408.192 222.326 407.559 219.608 405.869 217.564C404.268 215.776 402.136 214.548 399.787 214.061C397.536 213.471 395.523 214.079 393.152 214.043Z" fill="black"/>
<path d="M400.583 281.946C396.505 302.849 398.732 324.492 406.982 344.126C407.694 345.58 408.194 347.128 408.465 348.724C408.8 351.704 407.426 354.569 406.641 357.451C404.816 364.008 405.869 370.989 407.036 377.698C407.523 380.495 408.024 383.291 408.538 386.084C409.043 388.809 409.53 391.771 408.265 394.24C409.353 398.777 409.998 403.272 411.087 407.809C411.202 408.168 411.237 408.548 411.19 408.922C410.971 409.515 410.584 410.033 410.077 410.412C409.266 411.234 408.683 412.254 408.385 413.371C408.088 414.487 408.086 415.662 408.38 416.779C411.16 414.784 415.034 415.484 418.209 416.779C421.383 418.075 424.509 419.82 427.939 419.82C427.441 415.794 426.96 411.567 428.444 407.79C429.308 405.601 430.828 403.533 430.786 401.192C430.743 399.093 429.46 397.22 429.15 395.146C429.034 393.856 429.083 392.556 429.296 391.278C430.111 383.834 429.186 376.317 428.262 368.885C428.157 367.42 427.812 365.981 427.24 364.628C426.808 363.752 426.163 362.913 426.176 361.934C426.176 360.796 427.094 359.872 427.435 358.789C428.043 356.795 426.924 354.082 428.608 352.847C433.048 349.588 431.345 341.803 431.248 336.299C431.171 331.551 430.968 326.807 430.64 322.067C433.435 329.927 434.578 338.28 433.997 346.601C433.802 349.326 433.443 352.191 434.508 354.708C435.323 356.642 436.94 358.236 437.378 360.285C437.652 361.55 437.457 362.858 437.518 364.147C437.579 365.437 438.017 366.842 439.13 367.492C439.215 373.355 439.738 379.626 439.829 385.488C439.77 388.486 440.015 391.481 440.559 394.429C440.832 395.366 440.983 396.335 441.009 397.311C440.872 398.536 440.548 399.731 440.048 400.857C438.988 403.996 438.711 407.346 439.241 410.616C439.771 413.886 441.092 416.976 443.089 419.619C444.524 417.071 447.517 415.721 450.436 415.508C453.355 415.295 456.238 416.031 459.066 416.773C458.634 413.22 459.341 409.621 461.085 406.495C461.553 405.791 461.912 405.02 462.149 404.208C462.478 402.663 461.712 401.125 461.298 399.598C460.623 397.165 460.86 394.544 461.018 392.002C461.549 383.488 461.172 374.941 459.893 366.507C459.696 364.846 459.306 363.213 458.732 361.642C458.513 361.082 458.245 360.547 458.062 359.981C457.775 358.967 457.612 357.921 457.576 356.868L456.877 347.137C456.384 340.319 458.622 333.586 460.185 326.933C460.884 323.953 461.645 320.979 462.113 317.95C462.752 313.827 462.855 309.612 463.792 305.543C464.631 301.894 466.145 298.336 466.461 294.596C466.948 288.8 464.54 283.199 462.204 277.883C461.231 275.694 457.552 275.913 455.186 275.524C438.406 272.768 420.732 272.75 404.908 278.96C403.271 279.638 401.797 280.656 400.583 281.946Z" fill="#3C354C"/>
<path d="M412.68 174L414.541 181.237C415.047 182.897 415.327 184.618 415.374 186.352C415.394 186.985 415.253 187.612 414.967 188.177C414.661 188.64 414.268 189.041 413.811 189.357C412.54 190.324 411.658 192.58 410.205 193.249C410.953 194.551 411.987 193.705 413.337 194.356C415.715 195.511 417.892 197.172 420.471 197.743C422.904 198.279 425.458 197.774 427.872 197.135C431.297 196.205 434.702 194.922 437.457 192.677C440.212 190.433 441.782 188.45 441.769 184.905C438.728 185.264 436.022 182.192 434.678 179.431C434.212 178.382 433.869 177.282 433.656 176.153L432.026 168.983C430.25 169.372 428.803 170.643 427.106 171.306C425.409 171.969 423.402 172.03 421.517 172.115C418.17 172.267 414.842 172.698 411.567 173.404C411.117 173.495 410.552 173.781 410.661 174.219" fill="#FBB3B2"/>
<path opacity="0.1" d="M412.68 174L414.541 181.237C415.047 182.897 415.327 184.618 415.374 186.352C415.394 186.985 415.253 187.612 414.967 188.177C414.661 188.64 414.268 189.041 413.811 189.357C412.54 190.324 411.658 192.58 410.205 193.249C410.953 194.551 411.987 193.705 413.337 194.356C415.715 195.511 417.892 197.172 420.471 197.743C422.904 198.279 425.458 197.774 427.872 197.135C431.297 196.205 434.702 194.922 437.457 192.677C440.212 190.433 441.782 188.45 441.769 184.905C438.728 185.264 436.022 182.192 434.678 179.431C434.212 178.382 433.869 177.282 433.656 176.153L432.026 168.983C430.25 169.372 428.803 170.643 427.106 171.306C425.409 171.969 423.402 172.03 421.517 172.115C418.17 172.267 414.842 172.698 411.567 173.404C411.117 173.495 410.552 173.781 410.661 174.219" fill="black"/>
<path d="M420.672 177.99C429.566 177.99 436.776 170.78 436.776 161.885C436.776 152.991 429.566 145.781 420.672 145.781C411.777 145.781 404.567 152.991 404.567 161.885C404.567 170.78 411.777 177.99 420.672 177.99Z" fill="#FBB3B2"/>
<path d="M425.105 188.432C425.966 186.572 427.21 184.914 428.754 183.567C431.023 181.578 434.125 179.966 434.66 176.998L439.574 182.721C439.841 182.987 440.048 183.306 440.182 183.658C440.244 183.988 440.235 184.327 440.155 184.654C440.075 184.98 439.927 185.285 439.72 185.549C438.503 187.49 436.588 188.876 434.775 190.281C430.621 193.572 426.644 197.08 422.861 200.79C422.694 200.984 422.471 201.12 422.222 201.18C421.987 201.186 421.756 201.12 421.56 200.991C418.295 199.277 415.407 196.928 413.063 194.082C412.887 193.869 412.668 193.626 412.382 193.644C412.21 193.676 412.051 193.759 411.926 193.882C410.29 195.22 408.502 196.819 406.404 196.612C409.122 194.66 410.661 191.4 411.233 188.098C411.346 186.967 411.578 185.852 411.926 184.771C412.106 184.23 412.417 183.742 412.831 183.349C413.244 182.957 413.748 182.672 414.298 182.521C412.972 184.546 413.878 187.417 415.66 189.053C417.392 190.522 419.467 191.529 421.693 191.978C423.761 192.367 424.369 190.026 425.105 188.432Z" fill="#323444"/>
<path d="M404.153 283.6C406.446 284.166 408.617 285.127 410.843 285.838C414.9 287.109 419.17 287.557 423.402 287.158C424.705 287.129 425.972 286.726 427.051 285.996C427.337 285.765 427.599 285.492 427.903 285.279C428.412 284.974 428.963 284.746 429.539 284.604C435.116 282.858 439.787 279.094 444.318 275.408C444.464 275.286 444.628 275.134 444.616 274.94C444.595 274.807 444.531 274.685 444.433 274.593L442.049 271.856C435.797 272.921 429.393 272.519 423.05 272.361C421.747 272.303 420.443 272.338 419.145 272.464C417.892 272.61 416.658 272.927 415.423 273.194C410.734 274.216 405.941 274.605 401.192 275.274C400.859 275.299 400.537 275.399 400.249 275.566C400.049 275.721 399.878 275.911 399.744 276.126L398.078 278.467C397.431 279.255 396.955 280.168 396.679 281.149C396.29 282.974 397.105 283.582 398.656 283.345C400.488 283.077 402.354 283.163 404.153 283.6Z" fill="#323444"/>
<path d="M422.794 198.005C420.934 196.099 418.825 194.452 416.524 193.109C415.594 192.519 414.563 192.106 413.483 191.893C412.939 191.786 412.379 191.799 411.841 191.931C411.303 192.063 410.801 192.312 410.369 192.659C409.828 193.14 409.487 193.809 408.964 194.313C408.306 194.866 407.551 195.293 406.738 195.572C403.97 196.755 401.346 198.251 398.917 200.03C397.593 200.956 396.4 202.057 395.371 203.302C392.616 206.83 392.203 211.628 392.276 216.104C392.33 219.218 395.317 221.529 397.372 223.859C399.3 226.151 401.045 228.591 402.59 231.157C403.697 232.908 404.853 234.806 404.713 236.892C404.597 238.601 403.6 240.207 403.758 241.909C403.813 242.518 404.007 243.077 404.062 243.667C404.172 244.883 403.691 246.1 403.57 247.316C403.405 249.037 403.965 250.746 403.995 252.48C403.973 253.666 403.822 254.847 403.545 256.001C402.378 261.56 400.912 267.149 401.21 272.823L397.841 273.431C398.16 273.744 398.401 274.128 398.544 274.551C398.687 274.974 398.729 275.425 398.666 275.868C398.602 276.31 398.436 276.731 398.179 277.097C397.923 277.463 397.584 277.764 397.19 277.974C402.451 279.732 408.137 278.844 413.714 278.838C418.33 278.838 422.928 279.446 427.538 279.361C432.148 279.276 436.904 278.443 440.705 275.834C441.739 275.128 442.688 274.301 443.776 273.687C445.235 272.931 446.806 272.418 448.429 272.166C451.435 271.593 454.491 271.32 457.552 271.351C459.048 271.351 460.678 271.412 461.87 270.512C463.183 269.515 463.518 267.708 463.694 266.072C463.871 264.345 463.98 262.612 464.01 260.879C464.061 259.529 463.99 258.177 463.798 256.84C463.615 255.863 463.377 254.896 463.086 253.945L460.793 245.869C459.844 242.536 461.164 238.881 461.444 235.426C461.511 234.611 461.523 233.663 460.897 233.14C460.672 232.951 460.361 232.823 460.288 232.531C460.256 232.393 460.252 232.249 460.277 232.109C460.302 231.969 460.356 231.835 460.434 231.716C461.651 229.284 463.475 227.137 465.142 224.941C467.941 221.09 470.539 217.097 472.926 212.978C472.179 204.36 468.549 196.244 462.624 189.941C461.407 188.621 460.015 187.356 458.312 186.76C457.199 186.42 456.045 186.234 454.882 186.206C450.114 185.884 445.151 185.598 440.997 183.202C440.699 182.995 440.361 182.853 440.006 182.782C439.087 182.679 438.418 183.585 437.822 184.303C436.29 186.127 434.033 187.173 432.051 188.517C428.353 191.029 425.464 194.484 422.794 198.005Z" fill="#5B5583"/>
<path d="M473.34 215.466C474.289 218.47 474.198 221.681 474.508 224.814C474.691 226.704 475.023 228.577 475.499 230.415C475.716 231.425 476.107 232.39 476.655 233.267C477.202 234.07 477.986 234.721 478.333 235.627C478.523 236.241 478.607 236.882 478.582 237.524L478.655 241.721C478.812 243.945 478.473 246.175 477.664 248.253L475.043 256.226C473.626 260.544 472.172 264.929 469.618 268.688C469.258 269.324 468.713 269.835 468.055 270.153C467.54 270.289 467.012 270.371 466.48 270.397C465.552 270.562 464.712 271.045 464.102 271.764C463.493 272.482 463.153 273.39 463.141 274.332C462.532 273.442 461.773 272.666 460.897 272.039L455.563 267.781C453.738 266.297 451.835 264.789 449.621 263.932C452.598 263.002 455.242 261.228 457.23 258.824C459.219 256.421 460.467 253.492 460.824 250.394C460.822 249.471 461.03 248.56 461.432 247.73C461.876 247.012 462.697 246.465 462.758 245.619C462.831 244.555 461.626 243.752 461.626 242.688C461.626 241.982 462.149 241.399 462.381 240.736C462.597 239.916 462.597 239.055 462.381 238.236L461.645 234.149C461.601 233.74 461.477 233.343 461.28 232.981C461.004 232.635 460.699 232.313 460.367 232.02C459.102 230.603 459.662 228.371 460.367 226.626C461.988 222.751 464.075 219.089 466.583 215.721C467.476 214.59 468.302 213.408 469.058 212.182C469.703 211.063 469.849 209.512 470.53 208.533C471.406 210.832 472.592 213.1 473.34 215.466Z" fill="#5B5583"/>
<path d="M449.432 264.181C449.161 264.382 448.926 264.629 448.739 264.911C448.023 265.81 447.068 266.491 445.984 266.875C446.592 267.313 447.146 267.745 447.717 268.189C451.947 271.456 455.82 275.16 459.273 279.24C459.656 277.871 461.949 277.968 462.508 276.661C462.64 276.287 462.682 275.887 462.63 275.493C462.514 273.444 462.221 271.41 461.754 269.411C461.57 268.383 461.154 267.409 460.538 266.565C459.686 265.537 458.361 265.045 457.096 264.619C455.18 263.95 451.379 263.007 449.432 264.181Z" fill="#323444"/>
<path d="M441.83 268.961C440.006 270.311 438.406 272.002 436.357 272.927C434.909 273.583 433.261 273.869 431.996 274.848C432.683 276.363 434.471 277.147 436.132 277.087C437.793 276.923 439.386 276.339 440.76 275.39C441.848 274.721 443.126 273.942 444.312 274.411C444.494 275.335 443.703 276.205 443.703 277.141C443.703 278.078 444.482 278.759 445.248 279.252C448.897 281.605 453.592 281.411 457.941 281.137C458.19 281.146 458.436 281.074 458.64 280.93C458.735 280.82 458.806 280.693 458.851 280.555C458.896 280.417 458.913 280.272 458.902 280.127C458.957 279.166 458.981 278.212 458.987 277.251C459.11 276.476 459.009 275.682 458.697 274.963C458.384 274.243 457.873 273.627 457.223 273.188C454.863 271.16 452.318 269.358 449.621 267.806C446.945 266.255 444.232 267.173 441.83 268.961Z" fill="#FBB3B2"/>
<path d="M426.328 155.153C423.627 155.475 421.663 157.585 421.937 159.878C422.21 162.171 424.619 163.752 427.319 163.424C430.019 163.096 431.984 160.991 431.71 158.704C431.436 156.418 429.028 154.83 426.328 155.153ZM427.246 162.791C424.959 163.065 422.922 161.721 422.685 159.787C422.448 157.853 424.12 156.065 426.401 155.791C428.681 155.518 430.725 156.862 430.962 158.796C431.199 160.73 429.527 162.518 427.246 162.791Z" fill="#3C354C"/>
<path d="M413.167 156.734C410.466 157.056 408.502 159.167 408.776 161.453C409.049 163.74 411.458 165.328 414.158 165.005C416.858 164.683 418.823 162.573 418.549 160.28C418.275 157.987 415.867 156.412 413.167 156.734ZM414.085 164.367C411.798 164.64 409.761 163.296 409.53 161.368C409.299 159.44 410.959 157.646 413.246 157.366C415.532 157.087 417.57 158.437 417.801 160.371C418.032 162.305 416.366 164.093 414.085 164.367Z" fill="#3C354C"/>
<path d="M403.393 157.908L409.262 159.161L408.684 160.705L403.15 159.082L403.393 157.908Z" fill="#3C354C"/>
<path d="M436.107 153.979L430.694 156.588L431.625 157.95L436.618 155.061L436.107 153.979Z" fill="#3C354C"/>
<path d="M418.008 158.771L422.125 158.279L421.912 159.3L418.379 159.538L418.008 158.771Z" fill="#3C354C"/>
<path d="M410.022 157.391C410.41 156.558 410.617 155.652 410.631 154.733C410.645 154.183 410.739 153.638 410.91 153.115C411.209 152.451 411.664 151.869 412.236 151.418C414.134 149.813 416.852 148.986 419.534 148.87C422.459 148.736 425.368 149.364 427.976 150.695C428.772 151.068 429.486 151.597 430.074 152.252C430.925 153.292 431.108 154.636 431.966 155.664C432.551 156.287 433.287 156.749 434.103 157.005C434.919 157.261 435.788 157.301 436.624 157.123C436.922 156.065 436.533 154.946 436.685 153.863C436.925 152.936 437.248 152.032 437.652 151.163C438.595 148.384 437.22 145.16 434.386 143.5C433.395 142.892 432.221 142.496 431.479 141.675C430.737 140.854 430.561 140.003 430.05 139.182C428.693 137.011 425.184 135.995 422.514 136.999C421.675 137.315 420.933 137.795 420.082 138.136C418.5 138.787 416.7 138.902 414.961 139.121C413.246 139.28 411.57 139.719 409.998 140.423C408.496 141.165 407.237 142.357 406.89 143.78C406.726 144.437 406.763 145.118 406.598 145.768C405.759 149.071 400.34 150.676 400.036 154.046C399.927 155.262 400.59 156.43 401.417 157.421C401.988 158.096 403.357 159.903 404.324 160.164C405.291 160.426 406.027 159.507 406.951 159.191C408.411 158.735 409.293 158.638 410.022 157.391Z" fill="#CBCEDA"/>
<path d="M478.631 371.598C478.631 402.153 497.801 426.881 521.49 426.881L478.631 371.598Z" fill="#46455B"/>
<path d="M521.49 426.887C521.49 395.986 542.885 370.983 569.323 370.983L521.49 426.887Z" fill="#6C5CE7"/>
<path d="M494.164 374.371C494.164 403.399 506.388 426.887 521.49 426.887L494.164 374.371Z" fill="#6C5CE7"/>
<path d="M521.49 426.887C521.49 387.404 546.218 355.45 576.773 355.45L521.49 426.887Z" fill="#46455B"/>
<path opacity="0.1" d="M519.635 437.445C525.519 437.445 530.29 436.639 530.29 435.645C530.29 434.651 525.519 433.845 519.635 433.845C513.75 433.845 508.979 434.651 508.979 435.645C508.979 436.639 513.75 437.445 519.635 437.445Z" fill="#6C5CE7"/>
<path d="M512.476 427.276C512.476 427.276 518.558 427.088 520.383 425.786C522.207 424.485 529.73 422.922 530.186 425.014C530.643 427.106 539.309 435.42 532.455 435.475C525.601 435.529 516.509 434.404 514.684 433.291C512.859 432.178 512.476 427.276 512.476 427.276Z" fill="#A8A8A8"/>
<path opacity="0.2" d="M532.583 434.745C525.722 434.8 516.642 433.674 514.812 432.562C513.419 431.716 512.866 428.669 512.677 427.27H512.476C512.476 427.27 512.859 432.172 514.69 433.285C516.521 434.398 525.601 435.523 532.461 435.469C534.444 435.469 535.125 434.745 535.088 433.705C534.815 434.337 534.091 434.733 532.583 434.745Z" fill="black"/>
<path d="M13.678 389.454C13.678 413.781 28.925 433.437 47.7725 433.437L13.678 389.454Z" fill="#46455B"/>
<path d="M47.7725 433.437C47.7725 408.855 64.8015 388.961 85.8263 388.961L47.7725 433.437Z" fill="#6C5CE7"/>
<path d="M26.0301 391.668C26.0301 414.778 35.7609 433.449 47.7725 433.449L26.0301 391.668Z" fill="#6C5CE7"/>
<path d="M47.7725 433.437C47.7725 402.025 67.4471 376.603 91.756 376.603L47.7725 433.437Z" fill="#46455B"/>
<path opacity="0.1" d="M46.2946 441.842C50.9769 441.842 54.7726 441.2 54.7726 440.407C54.7726 439.614 50.9769 438.972 46.2946 438.972C41.6123 438.972 37.8166 439.614 37.8166 440.407C37.8166 441.2 41.6123 441.842 46.2946 441.842Z" fill="#6C5CE7"/>
<path d="M40.6021 433.747C40.6021 433.747 45.4371 433.595 46.8906 432.531C48.3442 431.467 54.3348 430.25 54.6936 431.923C55.0524 433.595 61.9613 440.2 56.5181 440.243C51.0749 440.285 43.8315 439.391 42.3779 438.51C40.9244 437.628 40.6021 433.747 40.6021 433.747Z" fill="#A8A8A8"/>
<path opacity="0.2" d="M56.5972 439.714C51.1236 439.756 43.9106 438.862 42.457 437.974C41.3501 437.305 40.9122 434.879 40.7602 433.766H40.6021C40.6021 433.766 40.9061 437.664 42.3597 438.552C43.8132 439.44 51.0445 440.328 56.4999 440.285C58.0751 440.285 58.6224 439.714 58.592 438.881C58.3731 439.367 57.771 439.677 56.5972 439.714Z" fill="black"/>
</g>
<defs>
<clipPath id="clip0">
<rect width="576.779" height="461" fill="white"/>
</clipPath>
</defs>
</svg>
